HIERARCHY
ROOT Hips
{
	OFFSET -0.001795 -0.223333 0.028219
	CHANNELS 6 Xposition Yposition Zposition Zrotation Yrotation Xrotation 
	JOINT LeftUpLeg
	{
		OFFSET 0.069520 -0.091406 -0.006815
		CHANNELS 3 Zrotation Yrotation Xrotation
		JOINT LeftLeg
		{
			OFFSET 0.034277 -0.375199 -0.004496
			CHANNELS 3 Zrotation Yrotation Xrotation
			JOINT LeftFoot
			{
				OFFSET -0.013596 -0.397961 -0.043693
				CHANNELS 3 Zrotation Yrotation Xrotation
				JOINT LeftToe
				{
					OFFSET 0.026358 -0.055791 0.119288
					CHANNELS 3 Zrotation Yrotation Xrotation
					End Site
					{
						OFFSET 0.000000 0.000000 0.000000
					}
				}
			}
		}
	}
	JOINT RightUpLeg
	{
		OFFSET -0.067670 -0.090522 -0.004320
		CHANNELS 3 Zrotation Yrotation Xrotation
		JOINT RightLeg
		{
			OFFSET -0.038290 -0.382569 -0.008850
			CHANNELS 3 Zrotation Yrotation Xrotation
			JOINT RightFoot
			{
				OFFSET 0.015774 -0.398415 -0.042312
				CHANNELS 3 Zrotation Yrotation Xrotation
				JOINT RightToe
				{
					OFFSET -0.025372 -0.048144 0.123348
					CHANNELS 3 Zrotation Yrotation Xrotation
					End Site
					{
						OFFSET 0.000000 0.000000 0.000000
					}
				}
			}
		}
	}
	JOINT Spine
	{
		OFFSET -0.002533 0.108963 -0.026696
		CHANNELS 3 Zrotation Yrotation Xrotation
		JOINT Spine1
		{
			OFFSET 0.005487 0.135180 0.001092
			CHANNELS 3 Zrotation Yrotation Xrotation
			JOINT Spine2
			{
				OFFSET 0.001457 0.052922 0.025425
				CHANNELS 3 Zrotation Yrotation Xrotation
				JOINT Neck
				{
					OFFSET -0.002778 0.213870 -0.042857
					CHANNELS 3 Zrotation Yrotation Xrotation
					JOINT Head
					{
						OFFSET 0.005152 0.064970 0.051349
						CHANNELS 3 Zrotation Yrotation Xrotation
						End Site
						{
							OFFSET 0.000000 0.000000 0.000000
						}
					}
				}
				JOINT LeftShoulder
				{
					OFFSET 0.078845 0.121749 -0.034090
					CHANNELS 3 Zrotation Yrotation Xrotation
					JOINT LeftArm
					{
						OFFSET 0.090977 0.030469 -0.008868
						CHANNELS 3 Zrotation Yrotation Xrotation
						JOINT LeftForeArm
						{
							OFFSET 0.259612 -0.012772 -0.027456
							CHANNELS 3 Zrotation Yrotation Xrotation
							JOINT LeftHand
							{
								OFFSET 0.249234 0.008986 -0.001171
								CHANNELS 3 Zrotation Yrotation Xrotation
								End Site
								{
									OFFSET 0.000000 0.000000 0.000000
								}
							}
						}
					}
				}
				JOINT RightShoulder
				{
					OFFSET -0.081759 0.118833 -0.038615
					CHANNELS 3 Zrotation Yrotation Xrotation
					JOINT RightArm
					{
						OFFSET -0.096012 0.032551 -0.009143
						CHANNELS 3 Zrotation Yrotation Xrotation
						JOINT RightForeArm
						{
							OFFSET -0.253742 -0.013329 -0.021401
							CHANNELS 3 Zrotation Yrotation Xrotation
							JOINT RightHand
							{
								OFFSET -0.255298 0.007772 -0.005559
								CHANNELS 3 Zrotation Yrotation Xrotation
								End Site
								{
									OFFSET 0.000000 0.000000 0.000000
								}
							}
						}
					}
				}
			}
		}
	}
}
MOTION
Frames: 12
Frame Time: 0.050000
0.000000 0.955076 0.000000 -0.834213 -5.052351 6.758322 3.056958 -0.432931 -5.772124 0.737699 0.153304 -5.761476 -0.666292 3.093090 12.810333 0.000000 0.000000 0.000000 -0.092568 0.659008 -6.657150 -3.280124 0.015398 -4.378447 2.952562 -1.035199 14.082395 0.000000 0.000000 0.000000 4.762908 0.286810 -4.942737 -3.096390 1.339470 -6.715260 -3.183842 5.880752 8.446657 5.590288 -2.471490 -12.437021 0.000000 0.000000 0.000000 -9.594492 -5.328708 1.046561 -60.629277 -9.703337 -2.806165 -11.093779 -14.340999 1.852336 0.000000 0.000000 0.000000 9.219659 -2.948553 -1.674178 67.831617 3.243478 -4.647622 9.719833 17.646952 2.032732 0.000000 0.000000 0.000000 
-0.000319 0.954095 0.000977 -0.983118 -5.737546 7.341737 3.323230 -0.399892 -5.343491 0.767974 0.172716 -6.232964 -0.514459 2.853514 11.458921 0.000000 0.000000 0.000000 -0.256313 0.755504 -7.622543 -3.319485 0.096953 -3.105256 3.105757 -0.581925 13.495892 0.000000 0.000000 0.000000 5.346802 0.311373 -5.167227 -3.396672 1.452655 -6.416693 -3.646773 7.215539 7.701565 5.589238 -2.444734 -11.873205 0.000000 0.000000 0.000000 -10.284740 -5.793264 1.022384 -59.488102 -9.894316 -2.606069 -12.807473 -15.358732 2.178351 0.000000 0.000000 0.000000 9.128950 -3.568269 -1.841884 68.962508 2.250285 -5.070965 9.994305 19.225645 2.324225 0.000000 0.000000 0.000000 
-0.000584 0.954036 0.001500 -0.309937 -4.762543 6.766661 3.130824 -0.425476 -5.660680 0.437281 0.113403 -4.309260 -0.889222 1.866265 9.966681 0.000000 0.000000 0.000000 -0.658134 0.686803 -6.992033 -3.557200 0.167942 -2.407737 2.506912 -0.986120 12.275454 0.000000 0.000000 0.000000 4.664050 0.254179 -4.613835 -3.110742 1.333595 -7.745515 -4.298400 7.046193 8.427741 5.060922 -2.240646 -10.717804 0.000000 0.000000 0.000000 -10.047645 -5.654390 0.937521 -59.423589 -9.777433 -2.784618 -13.371387 -14.986858 2.189614 0.000000 0.000000 0.000000 9.905595 -3.001029 -1.566508 68.851532 1.166026 -5.796308 8.638929 21.136653 2.393493 0.000000 0.000000 0.000000 
-0.000851 0.954547 0.002028 -0.043470 -4.592175 7.327626 3.222341 -0.465075 -6.275268 0.133325 0.159328 -4.895546 -1.674460 0.945685 11.205074 0.000000 0.000000 0.000000 -0.747558 0.751688 -7.663143 -3.440902 0.124830 -2.908720 2.141847 -1.929598 12.870981 0.000000 0.000000 0.000000 4.366521 0.304489 -5.350254 -3.598778 1.535107 -7.274190 -4.182578 6.950043 7.506043 4.523587 -2.107696 -9.071041 0.000000 0.000000 0.000000 -9.218075 -5.700198 1.012133 -59.627368 -9.940905 -2.637792 -14.276115 -15.448748 2.367366 0.000000 0.000000 0.000000 8.683097 -3.284699 -1.638124 69.274715 0.156386 -6.258784 10.928753 22.542130 3.004663 0.000000 0.000000 0.000000 
-0.001122 0.955117 0.002595 0.160197 -4.251484 6.954932 2.890403 -0.478485 -6.315974 0.465302 0.120357 -4.522171 -1.722019 0.881469 11.122005 0.000000 0.000000 0.000000 -0.782375 0.687925 -7.018382 -3.727432 0.121860 -3.278889 1.824652 -2.539757 13.012016 0.000000 0.000000 0.000000 4.058274 0.298551 -5.305308 -3.300028 1.424877 -7.240233 -4.327305 6.998166 7.851595 4.194025 -1.929888 -8.602594 0.000000 0.000000 0.000000 -8.601710 -4.990833 0.752629 -58.757260 -9.387595 -2.952651 -17.577483 -16.958850 3.072183 0.000000 0.000000 0.000000 7.785258 -3.620957 -1.708624 68.972443 -0.634478 -6.663687 12.806014 24.828153 3.786995 0.000000 0.000000 0.000000 
-0.001298 0.955809 0.003150 0.409037 -3.929218 6.983200 2.874804 -0.491902 -6.484166 -0.130887 0.159805 -4.374012 -1.501750 1.470056 11.623766 0.000000 0.000000 0.000000 -0.954979 0.691420 -7.081441 -3.993504 0.117095 -3.622377 1.928612 -2.404092 13.277146 0.000000 0.000000 0.000000 3.930052 0.288969 -5.245662 -3.391382 1.455495 -7.967967 -4.391881 7.267035 8.137739 3.775295 -1.754307 -7.579306 0.000000 0.000000 0.000000 -7.763599 -4.178969 0.466783 -58.230260 -8.220421 -3.585664 -21.287293 -19.419689 4.124665 0.000000 0.000000 0.000000 6.319693 -4.199613 -1.839528 68.990022 -2.050019 -7.384900 16.628694 28.083612 5.369155 0.000000 0.000000 0.000000 
-0.001353 0.956122 0.003563 0.468226 -3.700539 6.754318 2.615684 -0.523986 -6.836260 -0.030419 0.134518 -3.877389 -1.394349 1.794864 11.954520 0.000000 0.000000 0.000000 -1.066741 0.683485 -7.020854 -4.077226 0.168204 -3.028586 1.748241 -2.528749 12.852648 0.000000 0.000000 0.000000 4.077500 0.271404 -4.985459 -3.518006 1.504801 -8.286366 -4.650445 7.202379 8.388735 3.571924 -1.688789 -7.000845 0.000000 0.000000 0.000000 -7.116680 -3.074607 0.097675 -57.174152 -7.384277 -3.970121 -26.632209 -22.330836 5.793934 0.000000 0.000000 0.000000 5.344296 -4.701427 -1.987166 68.140165 -3.548387 -8.144043 22.791868 32.650082 8.292986 0.000000 0.000000 0.000000 
-0.001366 0.956840 0.003855 0.372594 -3.646900 6.726461 2.518744 -0.564751 -7.398026 0.233669 0.081172 -3.010277 -1.197503 1.926956 11.337563 0.000000 0.000000 0.000000 -1.073671 0.688026 -7.070565 -3.996282 0.191129 -2.642572 1.702076 -2.460224 12.506125 0.000000 0.000000 0.000000 4.252876 0.268387 -4.923472 -3.699734 1.567074 -8.798678 -4.604343 7.801448 8.808086 3.560906 -1.664306 -6.843685 0.000000 0.000000 0.000000 -5.683088 -1.999509 -0.173434 -56.783523 -7.094445 -4.220524 -34.042564 -25.232625 8.188490 0.000000 0.000000 0.000000 4.604512 -6.045737 -2.464648 66.972657 -4.964495 -8.716391 30.344189 36.668163 12.308104 0.000000 0.000000 0.000000 
-0.001487 0.957421 0.004018 0.333434 -3.876327 6.603133 2.385465 -0.580299 -7.570490 0.459868 0.055483 -2.863512 -0.952004 2.526249 11.990713 0.000000 0.000000 0.000000 -1.264188 0.682654 -7.041602 -3.778849 0.146799 -3.017443 2.168685 -1.986339 13.384904 0.000000 0.000000 0.000000 4.372286 0.260502 -4.780182 -3.637180 1.530723 -9.334898 -4.647387 8.056553 9.441433 3.645266 -1.621944 -7.458566 0.000000 0.000000 0.000000 -5.025509 -0.990575 -0.459351 -56.591240 -7.319533 -4.202677 -41.258819 -28.178798 11.096764 0.000000 0.000000 0.000000 4.182901 -6.750216 -2.716885 65.445932 -5.653005 -8.938158 38.782085 39.912016 17.115218 0.000000 0.000000 0.000000 
-0.001807 0.958168 0.004403 0.271232 -4.120196 6.656648 2.248317 -0.604301 -7.852697 0.590909 0.028052 -2.475208 -0.726116 2.844693 11.903443 0.000000 0.000000 0.000000 -1.211584 0.694325 -7.155626 -3.636065 0.149825 -2.807013 2.230769 -1.799875 13.135053 0.000000 0.000000 0.000000 4.567021 0.277328 -4.934855 -3.841455 1.598527 -9.549301 -4.487966 8.437458 10.115962 4.287908 -2.011855 -7.909011 0.000000 0.000000 0.000000 -4.530249 -0.511241 -0.568161 -56.097433 -7.277100 -4.277183 -49.815487 -31.543231 15.166964 0.000000 0.000000 0.000000 4.109136 -7.646077 -3.065372 64.133687 -6.363545 -9.190591 46.268833 41.960869 21.675523 0.000000 0.000000 0.000000 
-0.002230 0.958717 0.004946 0.116665 -4.469667 6.607976 2.366587 -0.593382 -7.810237 0.432984 0.049477 -2.665470 -0.596354 3.205241 12.526011 0.000000 0.000000 0.000000 -1.077464 0.686499 -7.049728 -3.625281 0.120893 -3.181272 2.589921 -1.555611 13.971826 0.000000 0.000000 0.000000 4.623607 0.293586 -5.080807 -3.884915 1.604837 -9.730769 -4.396705 8.417122 10.469559 4.227019 -1.873138 -8.610056 0.000000 0.000000 0.000000 -4.823005 -0.544296 -0.582377 -55.817954 -8.055961 -3.892838 -55.266949 -33.466828 18.168318 0.000000 0.000000 0.000000 3.993994 -7.680113 -3.076130 63.600533 -6.579889 -9.308124 50.274564 42.918869 24.160872 0.000000 0.000000 0.000000 
-0.002638 0.958749 0.005523 0.011457 -4.398427 6.773182 2.625234 -0.591964 -7.975388 -0.019624 0.093700 -2.744232 -0.640170 2.995652 12.047950 0.000000 0.000000 0.000000 -0.897048 0.711469 -7.281343 -3.929761 0.160553 -2.927427 2.443213 -1.529929 13.320054 0.000000 0.000000 0.000000 4.596137 0.301878 -5.205275 -3.867808 1.609583 -9.146700 -4.494542 8.025062 9.699073 4.922160 -2.387450 -8.685191 0.000000 0.000000 0.000000 -4.837007 -0.276339 -0.673164 -56.214331 -8.516052 -3.611754 -60.018978 -35.074905 20.986978 0.000000 0.000000 0.000000 3.872921 -8.493261 -3.404632 63.369084 -7.435432 -9.661805 54.074888 43.151912 26.084859 0.000000 0.000000 0.000000 
